<svg width="45" height="45" viewBox="0 0 45 45" fill="none" xmlns="http://www.w3.org/2000/svg">
<g clip-path="url(#clip0_14_104)">
<path d="M34.4531 0H10.5469C4.722 0 0 4.722 0 10.5469V34.4531C0 40.278 4.722 45 10.5469 45H34.4531C40.278 45 45 40.278 45 34.4531V10.5469C45 4.722 40.278 0 34.4531 0Z" fill="#00005B"/>
<path d="M18.4846 27.443H11.5096L10.0845 31.8679C10.0471 32.0367 9.89716 32.1492 9.72841 32.1305H6.2033C5.99711 32.1305 5.94085 32.018 5.9971 31.793L12.0345 14.4867C12.0907 14.2993 12.147 14.1305 12.222 13.9055C12.2971 13.5118 12.3345 13.0992 12.3345 12.6867C12.3159 12.593 12.3908 12.4993 12.4845 12.4805H17.3408C17.4721 12.4805 17.5658 12.5367 17.5846 12.6304L24.4283 31.7554C24.4845 31.9618 24.4283 32.0555 24.2409 32.0555H20.322C20.1909 32.0743 20.0596 31.9804 20.0222 31.8493L18.4846 27.3493V27.443ZM12.5972 23.7117H17.3596C17.2471 23.3179 17.097 22.8493 16.9282 22.3617C16.7595 21.8554 16.5907 21.3117 16.422 20.7492C16.2346 20.1679 16.0659 19.6054 15.8783 19.0243C15.6907 18.443 15.5222 17.8993 15.372 17.3554C15.2221 16.8305 15.0908 16.3429 14.9595 15.8929H14.922C14.7533 16.6992 14.5471 17.5055 14.2845 18.3117C14.0032 19.2117 13.722 20.1493 13.4221 21.0867C13.1783 22.043 12.8784 22.9242 12.5972 23.7117ZM35.4721 25.7555H29.5284C29.6033 26.3368 29.7909 26.9179 30.1095 27.4242C30.447 27.9304 30.9159 28.3242 31.4784 28.5492C32.2284 28.868 33.0534 29.0368 33.8783 29.018C34.5347 28.9992 35.1909 28.9429 35.8284 28.8118C36.4002 28.7369 36.9606 28.592 37.4971 28.3804C37.5908 28.3055 37.647 28.343 37.647 28.5305V31.3993C37.647 31.4742 37.6284 31.5492 37.6096 31.6243C37.5722 31.6805 37.5345 31.718 37.4783 31.7554C36.8787 32.0188 36.249 32.2077 35.6034 32.3179C34.7263 32.4866 33.8338 32.562 32.9409 32.5429C31.5158 32.5429 30.3159 32.3179 29.3409 31.8867C28.422 31.493 27.6159 30.8742 26.9784 30.1055C26.3847 29.3831 25.9445 28.5473 25.6846 27.6492C25.4222 26.768 25.2909 25.8492 25.2909 24.9117C25.2909 23.8992 25.4408 22.9055 25.7597 21.9305C26.0586 20.9917 26.5361 20.1194 27.1659 19.3618C27.7847 18.6117 28.5534 18.0118 29.4345 17.5804C30.3159 17.1492 31.3659 16.9993 32.5659 16.9993C33.5596 16.9805 34.5533 17.168 35.4721 17.5804C36.2408 17.9179 36.9158 18.4242 37.4409 19.0805C37.9283 19.7179 38.322 20.4305 38.5659 21.218C38.8097 21.9679 38.9222 22.7368 38.9222 23.5055C38.9222 23.9555 38.9034 24.3492 38.8845 24.7055C38.8471 25.0617 38.8283 25.3243 38.8097 25.493C38.7909 25.6242 38.6784 25.7367 38.547 25.7367C38.4345 25.7367 38.2284 25.7555 37.9283 25.7743C37.6284 25.8117 37.2721 25.8305 36.8409 25.8305C36.4095 25.8305 35.9595 25.7555 35.4721 25.7555ZM29.5284 23.018H33.4845C33.9722 23.018 34.3283 23.018 34.5533 22.9992C34.7034 22.9804 34.8534 22.943 34.9847 22.8493V22.6617C34.9854 22.4259 34.9474 22.1915 34.8722 21.9679C34.5347 20.918 33.5408 20.2055 32.4346 20.243C31.9257 20.2145 31.4195 20.3338 30.977 20.5867C30.5344 20.8396 30.1746 21.2151 29.9408 21.668C29.7158 22.0992 29.5847 22.5492 29.5284 23.018Z" fill="#9999FF"/>
</g>
<defs>
<clipPath id="clip0_14_104">
<rect width="45" height="45" fill="white"/>
</clipPath>
</defs>
</svg>
