<svg width="45" height="45" viewBox="0 0 45 45" fill="none" xmlns="http://www.w3.org/2000/svg">
<g clip-path="url(#clip0_14_88)">
<path d="M34.4531 0H10.5469C4.722 0 0 4.722 0 10.5469V34.4531C0 40.278 4.722 45 10.5469 45H34.4531C40.278 45 45 40.278 45 34.4531V10.5469C45 4.722 40.278 0 34.4531 0Z" fill="#242938"/>
<mask id="mask0_14_88" style="mask-type:luminance" maskUnits="userSpaceOnUse" x="10" y="4" width="25" height="37">
<path d="M10.7227 4.92188H34.1648V40.0781H10.7227V4.92188Z" fill="white"/>
</mask>
<g mask="url(#mask0_14_88)">
<path d="M16.5847 40.0782C19.819 40.0782 22.444 37.4532 22.444 34.2189V28.3594H16.5847C13.3503 28.3594 10.7252 30.9845 10.7252 34.2189C10.7252 37.4532 13.3503 40.0782 16.5847 40.0782Z" fill="#0ACF83"/>
<path d="M10.7252 22.5001C10.7252 19.2657 13.3503 16.6407 16.5847 16.6407H22.444V28.3594H16.5847C13.3503 28.3594 10.7252 25.7344 10.7252 22.5001Z" fill="#A259FF"/>
<path d="M10.725 10.7812C10.725 7.54682 13.3501 4.92188 16.5845 4.92188H22.4438V16.6407H16.5845C13.3501 16.6407 10.725 14.0156 10.725 10.7812Z" fill="#F24E1E"/>
<path d="M22.444 4.92188H28.3033C31.5377 4.92188 34.1628 7.54682 34.1628 10.7812C34.1628 14.0156 31.5377 16.6407 28.3033 16.6407H22.444V4.92188Z" fill="#FF7262"/>
<path d="M34.1628 22.5001C34.1628 25.7344 31.5377 28.3594 28.3033 28.3594C25.0689 28.3594 22.444 25.7344 22.444 22.5001C22.444 19.2657 25.0689 16.6407 28.3033 16.6407C31.5377 16.6407 34.1628 19.2657 34.1628 22.5001Z" fill="#1ABCFE"/>
</g>
</g>
<defs>
<clipPath id="clip0_14_88">
<rect width="45" height="45" fill="white"/>
</clipPath>
</defs>
</svg>
