<svg width="45" height="45" viewBox="0 0 45 45" fill="none" xmlns="http://www.w3.org/2000/svg">
<g clip-path="url(#clip0_14_108)">
<path d="M34.4532 0.00012207H10.547C4.72212 0.00012207 0.00012207 4.72212 0.00012207 10.547V34.4532C0.00012207 40.2781 4.72212 45.0001 10.547 45.0001H34.4532C40.2781 45.0001 45.0001 40.2781 45.0001 34.4532V10.547C45.0001 4.72212 40.2781 0.00012207 34.4532 0.00012207Z" fill="#171A1F"/>
<path d="M36.9667 22.6736C36.9667 26.0981 30.4897 28.8736 22.5 28.8736C14.5103 28.8736 8.03333 26.0981 8.03333 22.6736C8.03333 19.2492 14.5103 16.4736 22.5 16.4736C30.4897 16.4736 36.9667 19.2492 36.9667 22.6736Z" stroke="#61DAFB" stroke-width="2.06667"/>
<path d="M15.6096 35.394C18.6207 37.0266 24.1449 32.6515 27.9517 25.6269C31.7565 18.6002 32.4013 11.5839 29.3901 9.95328C26.379 8.32062 20.8548 12.6958 17.048 19.7204C13.2433 26.747 12.5985 33.7634 15.6096 35.394Z" stroke="#61DAFB" stroke-width="2.06667"/>
<path d="M29.3901 35.394C26.379 37.0266 20.8548 32.6515 17.048 25.6269C13.2433 18.6002 12.5985 11.5839 15.6096 9.95328C18.6207 8.32062 24.1449 12.6958 27.9517 19.7204C31.7565 26.747 32.4013 33.7634 29.3901 35.394Z" stroke="#61DAFB" stroke-width="2.06667"/>
<path d="M20.4333 22.6736C20.4333 23.2217 20.6511 23.7474 21.0387 24.135C21.4262 24.5225 21.9519 24.7403 22.5 24.7403C23.0481 24.7403 23.5738 24.5225 23.9614 24.135C24.3489 23.7474 24.5667 23.2217 24.5667 22.6736C24.5667 22.1255 24.3489 21.5998 23.9614 21.2122C23.5738 20.8247 23.0481 20.6069 22.5 20.6069C21.9519 20.6069 21.4262 20.8247 21.0387 21.2122C20.6511 21.5998 20.4333 22.1255 20.4333 22.6736Z" fill="#61DAFB" stroke="#61DAFB" stroke-width="2.06667"/>
</g>
<defs>
<clipPath id="clip0_14_108">
<rect width="45" height="45" fill="white"/>
</clipPath>
</defs>
</svg>
