<svg width="45" height="45" viewBox="0 0 45 45" fill="none" xmlns="http://www.w3.org/2000/svg">
<g clip-path="url(#clip0_14_125)">
<path d="M34.4532 0.00012207H10.547C4.72212 0.00012207 0.00012207 4.72212 0.00012207 10.547V34.4532C0.00012207 40.2781 4.72212 45.0001 10.547 45.0001H34.4532C40.2781 45.0001 45.0001 40.2781 45.0001 34.4532V10.547C45.0001 4.72212 40.2781 0.00012207 34.4532 0.00012207Z" fill="#4353FF"/>
<path d="M29.7257 18.1822C29.7257 18.1822 27.2973 25.7904 27.1178 26.4364C27.0461 25.8024 25.2757 12.129 25.2757 12.129C21.1365 12.129 18.9354 15.0718 17.7629 18.1822C17.7629 18.1822 14.8082 25.8143 14.569 26.4483C14.557 25.8502 14.1144 18.254 14.1144 18.254C13.8631 14.4377 10.3819 12.129 7.55884 12.129L10.9563 32.8364C15.2867 32.8245 17.6195 29.8937 18.8396 26.7714C18.8396 26.7714 21.4355 20.0364 21.5433 19.7374C21.5672 20.0244 23.4094 32.8364 23.4094 32.8364C27.7519 32.8364 30.0966 30.097 31.3526 27.0943L37.4417 12.129C33.147 12.129 30.8861 15.0598 29.7257 18.1822Z" fill="white"/>
</g>
<defs>
<clipPath id="clip0_14_125">
<rect width="45" height="45" fill="white"/>
</clipPath>
</defs>
</svg>
