<svg width="45" height="45" viewBox="0 0 45 45" fill="none" xmlns="http://www.w3.org/2000/svg">
<g clip-path="url(#clip0_14_129)">
<path d="M34.4531 0H10.5469C4.722 0 0 4.722 0 10.5469V34.4531C0 40.278 4.722 45 10.5469 45H34.4531C40.278 45 45 40.278 45 34.4531V10.5469C45 4.722 40.278 0 34.4531 0Z" fill="#0073AA"/>
<path d="M7.42041 22.4989C7.42041 28.4676 10.8891 33.6257 15.9189 36.0701L8.72594 16.3622C7.86369 18.2931 7.41881 20.3843 7.42041 22.4989ZM32.6791 21.738C32.6791 19.8745 32.0098 18.5839 31.4356 17.5793C30.6712 16.3373 29.9547 15.2854 29.9547 14.0433C29.9547 12.6571 31.006 11.3669 32.4868 11.3669C32.5538 11.3669 32.6171 11.3751 32.6823 11.3788C29.9995 8.92105 26.4254 7.42041 22.4995 7.42041C17.2316 7.42041 12.5968 10.1232 9.90069 14.2172C10.2544 14.2277 10.5878 14.2353 10.871 14.2353C12.4483 14.2353 14.8897 14.0437 14.8897 14.0437C15.7025 13.9959 15.7985 15.1898 14.9864 15.2859C14.9864 15.2859 14.1695 15.3821 13.2606 15.4297L18.7516 31.7629L22.0516 21.8659L19.7023 15.4292C18.8903 15.3815 18.1211 15.2854 18.1211 15.2854C17.3085 15.2378 17.4037 13.9953 18.2164 14.0433C18.2164 14.0433 20.7065 14.2346 22.1881 14.2346C23.7653 14.2346 26.2069 14.0433 26.2069 14.0433C27.0204 13.9953 27.1158 15.1892 26.3035 15.2854C26.3035 15.2854 25.4849 15.3815 24.5777 15.4292L30.0271 31.6387L31.5311 26.6127C32.1831 24.5269 32.6791 23.0289 32.6791 21.738Z" fill="white"/>
<path d="M22.7642 23.818L18.2399 36.9647C19.6232 37.3721 21.0577 37.579 22.4996 37.5791C24.2051 37.5797 25.8983 37.2906 27.5069 36.7243C27.4651 36.6583 27.4292 36.5888 27.3997 36.5165L22.7642 23.818ZM35.7309 15.2645C35.7994 15.7785 35.8334 16.2964 35.8325 16.8149C35.8325 18.3451 35.5466 20.0653 34.6858 22.2161L30.0799 35.5332C34.5628 32.9189 37.5782 28.0623 37.5782 22.4993C37.5783 19.8776 36.9088 17.4122 35.7309 15.2645Z" fill="white"/>
<path d="M22.4996 4.92188C12.8074 4.92188 4.92188 12.8069 4.92188 22.4989C4.92188 32.1922 12.8074 40.0769 22.4996 40.0769C32.1913 40.0769 40.0781 32.1922 40.0781 22.4989C40.0778 12.8069 32.1913 4.92188 22.4996 4.92188ZM22.4996 39.2713C13.2518 39.2713 5.72783 31.7471 5.72783 22.4989C5.72783 13.2513 13.2516 5.72783 22.4996 5.72783C31.747 5.72783 39.2704 13.2513 39.2704 22.4989C39.2704 31.7471 31.747 39.2713 22.4996 39.2713Z" fill="white"/>
</g>
<defs>
<clipPath id="clip0_14_129">
<rect width="45" height="45" fill="white"/>
</clipPath>
</defs>
</svg>
