<svg width="100" height="100" xmlns="http://www.w3.org/2000/svg">
  <defs>
    <pattern id="imagePattern" x="0" y="0" width="1" height="1">
      <image href="/assets/img/profile.webp" x="0" y="0" width="100" height="100" />
    </pattern>
  </defs>
  <path fill-rule="evenodd" clip-rule="evenodd" d="M64.2254 3.22681C68.2211 6.01166 70.4799 10.5866 70.2124 15.314C70.1418 16.3234 70.2352 17.1478 70.3753 17.1572C70.5153 17.1667 71.3836 16.9133 72.2912 16.6142C74.654 15.7902 77.2915 15.7548 80.063 16.4974C83.7677 17.4901 86.0743 19.2218 88.0869 22.4745C90.1978 25.8961 90.665 29.1635 89.6223 33.0546C88.5297 37.1322 86.0008 40.2816 82.4917 41.9694L80.8856 42.7391L82.7773 43.246C89.2012 44.9663 93.5285 51.5244 92.5948 58.1009C91.5599 65.4788 85.0478 70.7021 77.8121 69.9915C77.1918 69.9262 76.636 69.8778 76.2724 69.8461C76.017 69.8239 75.8564 69.8099 75.8348 69.8041C75.8013 69.8242 76.0659 70.7518 76.456 71.8555C79.5872 81.0636 72.7176 90.3908 63.0255 90.1076C59.1992 89.9961 55.7217 88.264 52.9443 85.0926L51.8639 83.8541C50.1915 89.7142 44.7967 94.0044 38.3998 94.0044C30.6678 94.0044 24.3998 87.7364 24.3998 80.0044C24.3998 77.8372 24.8923 75.7849 25.7714 73.9535L25.8021 73.82L23.9169 74.8855C20.3566 76.8729 15.8955 77.1066 12.1545 75.5036C7.23769 73.3868 4.04795 68.8758 3.74829 63.5966C3.48826 59.5563 5.44541 55.0255 8.55255 52.4879L9.86898 51.4126L9.15882 51.0797C4.37887 48.7706 2.08444 46.3563 0.656925 42.0895C-0.943782 37.4047 0.776807 31.4106 4.69788 27.8629C8.02142 24.84 13.0668 23.7075 17.5969 24.9213L18.9293 25.2783L18.0989 23.6851C14.3809 16.3482 17.8183 7.35763 25.4064 4.62083C28.5447 3.46233 30.8548 3.36732 33.954 4.16863C37.2586 5.0541 40.1137 7.18987 41.9315 10.1051L43.0183 11.9107L43.2397 11.0843C44.325 7.0339 47.7952 3.24994 51.6874 1.83755C54.6641 0.750214 56.2852 0.670434 59.6782 1.43598C62.2843 2.04993 62.8293 2.25322 64.2254 3.22681Z" fill="url(#imagePattern)"/>
</svg>



