<svg width="18" height="18" viewBox="0 0 18 18" fill="none" xmlns="http://www.w3.org/2000/svg">
<g id="Vertical container">
<path id="Vector" opacity="0.64" d="M4.5 2.8125H10.125C11.057 2.8125 11.8125 3.56802 11.8125 4.5V6.1875H7.875C6.94302 6.1875 6.1875 6.94302 6.1875 7.875V11.8125H4.5C3.56802 11.8125 2.8125 11.057 2.8125 10.125V4.5C2.8125 3.56802 3.56802 2.8125 4.5 2.8125Z" stroke="#7D7F83" stroke-width="1.125" stroke-linecap="round" stroke-linejoin="round"/>
<path id="Vector_2" d="M13.5 6.1875H7.875C6.94302 6.1875 6.1875 6.94302 6.1875 7.875V13.5C6.1875 14.432 6.94302 15.1875 7.875 15.1875H13.5C14.432 15.1875 15.1875 14.432 15.1875 13.5V7.875C15.1875 6.94302 14.432 6.1875 13.5 6.1875Z" stroke="#7D7F83" stroke-width="1.125" stroke-linecap="round" stroke-linejoin="round"/>
</g>
</svg>
