<svg width="16" height="16" viewBox="0 0 16 16" fill="none" xmlns="http://www.w3.org/2000/svg">
<path d="M14 2.16667V13.8333C14 14.1428 13.8851 14.4395 13.6805 14.6583C13.4759 14.8771 13.1984 15 12.9091 15H10.1818C9.89249 15 9.61501 14.8771 9.41043 14.6583C9.20584 14.4395 9.09091 14.1428 9.09091 13.8333V2.16667C9.09091 1.85725 9.20584 1.5605 9.41043 1.34171C9.61501 1.12292 9.89249 1 10.1818 1H12.9091C13.1984 1 13.4759 1.12292 13.6805 1.34171C13.8851 1.5605 14 1.85725 14 2.16667ZM5.81818 1H3.09091C2.80158 1 2.5241 1.12292 2.31952 1.34171C2.11493 1.5605 2 1.85725 2 2.16667V13.8333C2 14.1428 2.11493 14.4395 2.31952 14.6583C2.5241 14.8771 2.80158 15 3.09091 15H5.81818C6.10751 15 6.38499 14.8771 6.58957 14.6583C6.79416 14.4395 6.90909 14.1428 6.90909 13.8333V2.16667C6.90909 1.85725 6.79416 1.5605 6.58957 1.34171C6.38499 1.12292 6.10751 1 5.81818 1Z" fill="black"/>
</svg>
