<svg width="16" height="17" viewBox="0 0 16 17" fill="none" xmlns="http://www.w3.org/2000/svg">
<path d="M14.5178 7.43541L5.51778 1.94166C5.36786 1.84666 5.19473 1.79467 5.01728 1.79136C4.83983 1.78806 4.66488 1.83356 4.51153 1.92291C4.35591 2.00829 4.22618 2.13404 4.13599 2.28692C4.0458 2.4398 3.99849 2.61416 3.99903 2.79166V13.7917C3.99849 13.9692 4.0458 14.1435 4.13599 14.2964C4.22618 14.4493 4.35591 14.575 4.51153 14.6604C4.66488 14.7498 4.83983 14.7953 5.01728 14.792C5.19473 14.7887 5.36786 14.7367 5.51778 14.6417L14.5178 9.14791C14.6653 9.05892 14.7873 8.93333 14.872 8.78331C14.9567 8.6333 15.0012 8.46394 15.0012 8.29166C15.0012 8.11939 14.9567 7.95003 14.872 7.80001C14.7873 7.65 14.6653 7.5244 14.5178 7.43541Z" fill="black"/>
</svg>
