<svg width="24" height="24" viewBox="0 0 24 24" fill="none" xmlns="http://www.w3.org/2000/svg">
<path d="M12 2.25C10.0716 2.25 8.18657 2.82183 6.58319 3.89317C4.97982 4.96452 3.73013 6.48726 2.99218 8.26884C2.25422 10.0504 2.06114 12.0108 2.43735 13.9021C2.81355 15.7934 3.74215 17.5307 5.10571 18.8943C6.46928 20.2579 8.20656 21.1865 10.0979 21.5627C11.9892 21.9389 13.9496 21.7458 15.7312 21.0078C17.5127 20.2699 19.0355 19.0202 20.1068 17.4168C21.1782 15.8134 21.75 13.9284 21.75 12C21.745 9.41566 20.7162 6.93859 18.8888 5.11118C17.0614 3.28378 14.5843 2.25496 12 2.25ZM14.6813 15.8156C14.591 15.9915 14.435 16.1246 14.2472 16.186C14.0593 16.2474 13.8548 16.2323 13.6781 16.1437C13.1574 15.8827 12.5825 15.7478 12 15.75C11.4133 15.7474 10.8346 15.8856 10.3125 16.1531C10.2068 16.2022 10.0916 16.2278 9.975 16.2281C9.80772 16.2263 9.64584 16.1687 9.5151 16.0643C9.38436 15.9599 9.29227 15.8148 9.25347 15.6521C9.21468 15.4894 9.2314 15.3183 9.30099 15.1662C9.37057 15.0141 9.48902 14.8896 9.6375 14.8125C10.3694 14.4406 11.1791 14.2478 12 14.25C12.8167 14.2492 13.6223 14.4386 14.3531 14.8031C14.5296 14.8952 14.6629 15.0529 14.7243 15.2423C14.7856 15.4316 14.7702 15.6375 14.6813 15.8156ZM16.0688 13.1625C16.0242 13.2496 15.9628 13.3271 15.8881 13.3903C15.8134 13.4536 15.7269 13.5014 15.6337 13.5311C15.5404 13.5607 15.4422 13.5716 15.3447 13.563C15.2472 13.5545 15.1523 13.5267 15.0656 13.4813C14.1155 12.9987 13.0645 12.748 11.9989 12.7496C10.9332 12.7513 9.88306 13.0052 8.93438 13.4906C8.82674 13.5449 8.70806 13.5738 8.5875 13.575C8.44909 13.5753 8.31337 13.5368 8.19572 13.4639C8.07807 13.391 7.9832 13.2866 7.92188 13.1625C7.87659 13.0745 7.84915 12.9785 7.84115 12.8799C7.83314 12.7813 7.84472 12.6821 7.87521 12.588C7.90571 12.4938 7.95453 12.4067 8.01885 12.3315C8.08318 12.2564 8.16174 12.1947 8.25 12.15C9.40979 11.5582 10.6933 11.2497 11.9953 11.2497C13.2973 11.2497 14.5808 11.5582 15.7406 12.15C15.8289 12.1947 15.9075 12.2564 15.9718 12.3315C16.0361 12.4067 16.0849 12.4938 16.1154 12.588C16.1459 12.6821 16.1575 12.7813 16.1495 12.8799C16.1415 12.9785 16.114 13.0745 16.0688 13.1625ZM17.4563 10.5C17.4117 10.5871 17.3503 10.6646 17.2756 10.7278C17.2009 10.7911 17.1144 10.8389 17.0212 10.8686C16.9279 10.8982 16.8297 10.9091 16.7322 10.9005C16.6347 10.892 16.5398 10.8642 16.4531 10.8188C15.0743 10.115 13.5481 9.74872 12 9.75C10.4475 9.74614 8.91696 10.1159 7.5375 10.8281C7.43356 10.8833 7.3177 10.9123 7.2 10.9125C7.03192 10.9128 6.86862 10.8566 6.73629 10.753C6.60396 10.6493 6.51028 10.5042 6.47028 10.341C6.43028 10.1777 6.44628 10.0058 6.5157 9.85272C6.58513 9.69964 6.70396 9.57433 6.85313 9.49688C8.44364 8.67938 10.2059 8.25216 11.9942 8.25053C13.7825 8.2489 15.5455 8.67291 17.1375 9.4875C17.225 9.53299 17.3026 9.59529 17.366 9.67081C17.4293 9.74634 17.4772 9.83362 17.5068 9.92766C17.5364 10.0217 17.5472 10.1207 17.5385 10.2189C17.5298 10.3171 17.5019 10.4126 17.4563 10.5Z" fill="#1ED760"/>
</svg>
